<?xml version="1.0" standalone="no"?>
<svg viewBox="0 0 200 200" xmlns="http://www.w3.org/2000/svg">
  <path fill="#EE5432" d="M43.3,-77.4C55.2,-68.1,63.3,-54.7,69.6,-41.1C75.9,-27.5,80.5,-13.7,81.7,0.7C82.9,15.1,80.8,30.3,72.9,41.1C65,52,51.3,58.7,38.2,61.9C25.1,65.1,12.6,64.8,-0.8,66.3C-14.3,67.8,-28.5,70.9,-42.6,68.3C-56.8,65.7,-70.7,57.3,-77.9,45C-85,32.6,-85.2,16.3,-84.4,0.5C-83.6,-15.4,-81.7,-30.7,-73,-40.3C-64.3,-49.8,-48.7,-53.5,-35.3,-62C-22,-70.4,-11,-83.6,2.3,-87.6C15.7,-91.7,31.4,-86.6,43.3,-77.4Z" transform="translate(100 100)" />
</svg>
