<svg xmlns="http://www.w3.org/2000/svg" version="1.1" xmlns:xlink="http://www.w3.org/1999/xlink" xmlns:svgjs="http://svgjs.dev/svgjs" width="1440" height="560" preserveAspectRatio="none" viewBox="0 0 1440 560"><g mask="url(&quot;#SvgjsMask1015&quot;)" fill="none"><rect width="1440" height="560" x="0" y="0" fill="rgba(206, 48, 13, 1)"></rect><path d="M132.78 177.85L176.08 202.85L176.08 252.85L132.78 277.85L89.48 252.85L89.48 202.85zM176.08 102.85L219.38 127.85L219.38 177.85L176.08 202.85L132.78 177.85L132.78 127.85zM219.38 327.85L262.69 352.85L262.69 402.85L219.38 427.85L176.08 402.85L176.08 352.85zM305.99 177.85L349.29 202.85L349.29 252.85L305.99 277.85L262.69 252.85L262.69 202.85zM349.29 -47.15L392.59 -22.15L392.59 27.85L349.29 52.85L305.99 27.85L305.99 -22.15zM349.29 102.85L392.59 127.85L392.59 177.85L349.29 202.85L305.99 177.85L305.99 127.85zM435.9 402.85L479.2 427.85L479.2 477.85L435.9 502.85L392.59 477.85L392.59 427.85zM479.2 477.85L522.5 502.85L522.5 552.85L479.2 577.85L435.9 552.85L435.9 502.85zM609.11 402.85L652.41 427.85L652.41 477.85L609.11 502.85L565.8 477.85L565.8 427.85zM739.01 177.85L782.32 202.85L782.32 252.85L739.01 277.85L695.71 252.85L695.71 202.85zM868.92 402.85L912.22 427.85L912.22 477.85L868.92 502.85L825.62 477.85L825.62 427.85zM998.83 477.85L1042.13 502.85L1042.13 552.85L998.83 577.85L955.53 552.85L955.53 502.85zM1085.43 327.85L1128.73 352.85L1128.73 402.85L1085.43 427.85L1042.13 402.85L1042.13 352.85zM1128.73 252.85L1172.04 277.85L1172.04 327.85L1128.73 352.85L1085.43 327.85L1085.43 277.85zM1128.73 402.85L1172.04 427.85L1172.04 477.85L1128.73 502.85L1085.43 477.85L1085.43 427.85zM1215.34 102.85L1258.64 127.85L1258.64 177.85L1215.34 202.85L1172.04 177.85L1172.04 127.85zM1345.25 27.85L1388.55 52.85L1388.55 102.85L1345.25 127.85L1301.94 102.85L1301.94 52.85zM1345.25 177.85L1388.55 202.85L1388.55 252.85L1345.25 277.85L1301.94 252.85L1301.94 202.85zM1301.94 252.85L1345.25 277.85L1345.25 327.85L1301.94 352.85L1258.64 327.85L1258.64 277.85zM1388.55 402.85L1431.85 427.85L1431.85 477.85L1388.55 502.85L1345.25 477.85L1345.25 427.85zM1431.85 477.85L1475.15 502.85L1475.15 552.85L1431.85 577.85L1388.55 552.85L1388.55 502.85z" stroke="rgba(238, 84, 50, 1)" stroke-width="2"></path></g><defs><mask id="SvgjsMask1015"><rect width="1440" height="560" fill="#ffffff"></rect></mask></defs></svg>