<svg xmlns="http://www.w3.org/2000/svg" version="1.1" xmlns:xlink="http://www.w3.org/1999/xlink" xmlns:svgjs="http://svgjs.dev/svgjs" width="1440" height="250" preserveAspectRatio="none" viewBox="0 0 1440 250"><g mask="url(&quot;#SvgjsMask1006&quot;)" fill="none"><rect width="1440" height="250" x="0" y="0" fill="rgba(206, 48, 13, 1)"></rect><path d="M11 250L261 0L316.5 0L66.5 250z" fill="url(&quot;#SvgjsLinearGradient1007&quot;)"></path><path d="M270.6 250L520.6 0L696.1 0L446.1 250z" fill="url(&quot;#SvgjsLinearGradient1007&quot;)"></path><path d="M504.20000000000005 250L754.2 0L1072.2 0L822.2 250z" fill="url(&quot;#SvgjsLinearGradient1007&quot;)"></path><path d="M727.8000000000001 250L977.8000000000001 0L1243.3000000000002 0L993.3000000000001 250z" fill="url(&quot;#SvgjsLinearGradient1007&quot;)"></path><path d="M1415 250L1165 0L1084 0L1334 250z" fill="url(&quot;#SvgjsLinearGradient1008&quot;)"></path><path d="M1199.4 250L949.4000000000001 0L743.9000000000001 0L993.9000000000001 250z" fill="url(&quot;#SvgjsLinearGradient1008&quot;)"></path><path d="M921.8 250L671.8 0L569.8 0L819.8 250z" fill="url(&quot;#SvgjsLinearGradient1008&quot;)"></path><path d="M694.1999999999999 250L444.19999999999993 0L159.19999999999993 0L409.19999999999993 250z" fill="url(&quot;#SvgjsLinearGradient1008&quot;)"></path><path d="M1261.3583824199368 250L1440 71.35838241993667L1440 250z" fill="url(&quot;#SvgjsLinearGradient1007&quot;)"></path><path d="M0 250L178.64161758006333 250L 0 71.35838241993667z" fill="url(&quot;#SvgjsLinearGradient1008&quot;)"></path></g><defs><mask id="SvgjsMask1006"><rect width="1440" height="250" fill="#ffffff"></rect></mask><linearGradient x1="0%" y1="100%" x2="100%" y2="0%" id="SvgjsLinearGradient1007"><stop stop-color="rgba(238, 84, 50, 1)" offset="0"></stop><stop stop-opacity="0" stop-color="rgba(238, 84, 50, 1)" offset="0.66"></stop></linearGradient><linearGradient x1="100%" y1="100%" x2="0%" y2="0%" id="SvgjsLinearGradient1008"><stop stop-color="rgba(238, 84, 50, 1)" offset="0"></stop><stop stop-opacity="0" stop-color="rgba(238, 84, 50, 1)" offset="0.66"></stop></linearGradient></defs></svg>