<svg xmlns="http://www.w3.org/2000/svg" version="1.1" xmlns:xlink="http://www.w3.org/1999/xlink" xmlns:svgjs="http://svgjs.dev/svgjs" width="1440" height="560" preserveAspectRatio="none" viewBox="0 0 1440 560"><g mask="url(&quot;#SvgjsMask1013&quot;)" fill="none"><rect width="1440" height="560" x="0" y="0" fill="url(&quot;#SvgjsLinearGradient1014&quot;)"></rect><path d="M1440 0L821.17 0L1440 50.22z" fill="rgba(255, 255, 255, .1)"></path><path d="M821.17 0L1440 50.22L1440 53.43L505.21 0z" fill="rgba(255, 255, 255, .075)"></path><path d="M505.21000000000004 0L1440 53.43L1440 210.84L268.70000000000005 0z" fill="rgba(255, 255, 255, .05)"></path><path d="M268.70000000000005 0L1440 210.84L1440 452.93L104.14000000000004 0z" fill="rgba(255, 255, 255, .025)"></path><path d="M0 560L176.58 560L0 553.58z" fill="rgba(0, 0, 0, .1)"></path><path d="M0 553.58L176.58 560L318.39 560L0 306.24z" fill="rgba(0, 0, 0, .075)"></path><path d="M0 306.24L318.39 560L600.73 560L0 187.81z" fill="rgba(0, 0, 0, .05)"></path><path d="M0 187.81L600.73 560L775.8100000000001 560L0 133.73000000000002z" fill="rgba(0, 0, 0, .025)"></path></g><defs><mask id="SvgjsMask1013"><rect width="1440" height="560" fill="#ffffff"></rect></mask><linearGradient x1="15.28%" y1="-39.29%" x2="84.72%" y2="139.29%" gradientUnits="userSpaceOnUse" id="SvgjsLinearGradient1014"><stop stop-color="rgba(206, 48, 13, 1)" offset="0"></stop><stop stop-color="rgba(238, 84, 50, 1)" offset="1"></stop></linearGradient></defs></svg>