<svg xmlns="http://www.w3.org/2000/svg" version="1.1" xmlns:xlink="http://www.w3.org/1999/xlink" xmlns:svgjs="http://svgjs.dev/svgjs" width="1440" height="560" preserveAspectRatio="none" viewBox="0 0 1440 560"><g mask="url(&quot;#SvgjsMask1003&quot;)" fill="none"><path d="M -176.26525597570685,219 C -80.27,272 111.73,488.6 303.73474402429315,484 C 495.73,479.4 591.73,196 783.7347440242931,196 C 975.73,196 1071.73,475.6 1263.7347440242931,484 C 1455.73,492.4 1708.48,268 1743.7347440242931,238 C 1778.99,208 1500.75,314.8 1440,334" stroke="rgba(249, 247, 220, 1)" stroke-width="2"></path><path d="M -468.3037308861456,131 C -372.3,196.8 -180.3,437.8 11.696269113854392,460 C 203.7,482.2 299.7,234 491.6962691138544,242 C 683.7,250 779.7,496 971.6962691138544,500 C 1163.7,504 1358.04,270.6 1451.6962691138544,262 C 1545.36,253.4 1442.34,418 1440,457" stroke="rgba(249, 247, 220, 1)" stroke-width="2"></path><path d="M -619.9157294120872,155 C -523.92,211.2 -331.92,448 -139.9157294120872,436 C 52.08,424 148.08,106.4 340.0842705879128,95 C 532.08,83.6 628.08,355.6 820.0842705879128,379 C 1012.08,402.4 1176.1,223.8 1300.084270587913,212 C 1424.07,200.2 1412.02,298.4 1440,320" stroke="rgba(249, 247, 220, 1)" stroke-width="2"></path><path d="M -959.1781655034554,461 C -863.18,401.2 -671.18,171 -479.1781655034553,162 C -287.18,153 -191.18,414.2 0.8218344965446818,416 C 192.82,417.8 288.82,181.6 480.8218344965447,171 C 672.82,160.4 768.99,357 960.8218344965446,363 C 1152.66,369 1344.16,233.4 1440,201" stroke="rgba(249, 247, 220, 1)" stroke-width="2"></path></g><defs><mask id="SvgjsMask1003"><rect width="1440" height="560" fill="#ffffff"></rect></mask></defs></svg>